<?xml version="1.0" encoding="iso-8859-1"?>
<!-- Generator: Adobe Illustrator 19.0.0, SVG Export Plug-In . SVG Version: 6.00 Build 0)  -->
<svg version="1.1" id="Capa_1" xmlns="http://www.w3.org/2000/svg" xmlns:xlink="http://www.w3.org/1999/xlink" x="0px" y="0px"
	 viewBox="0 0 489.2 489.2" style="enable-background:new 0 0 489.2 489.2;" xml:space="preserve">
<g>
	<g>
		<g>
			<path d="M39.5,377.35h160.9v44.1H169c-5.2,0-9.5,4.3-9.5,9.5v27.5c0,5.2,4.2,9.5,9.5,9.5h151.2c5.2,0,9.5-4.2,9.5-9.5v-27.5
				c0-5.2-4.2-9.5-9.5-9.5h-31.4v-44.1h160.9c21.8,0,39.5-17.7,39.5-39.5V60.75c0-21.8-17.7-39.5-39.5-39.5H39.5
				C17.7,21.25,0,38.95,0,60.75v277.1C0,359.65,17.7,377.35,39.5,377.35z M53.9,75.15h381.4v248H53.9V75.15z M244.6,106.15
				c-52.2,0-94.6,42.4-94.6,94.6s42.4,94.6,94.6,94.6s94.6-42.4,94.6-94.6S296.8,106.15,244.6,106.15z M213.6,128.75
				c-6.4,8.9-12.6,20.2-16.8,34h-20.7C184.4,147.65,197.6,135.65,213.6,128.75z M166.2,200.75c0-7.7,1.1-15.2,3.2-22.2H193
				c-1.2,6.9-1.8,14.3-1.8,22.2s0.7,15.3,1.8,22.2h-23.6C167.3,215.85,166.2,208.45,166.2,200.75z M176,238.75h20.7
				c4.2,13.8,10.4,25.1,16.8,34C197.6,265.85,184.4,253.75,176,238.75z M236.7,275.65c-7.6-7.7-17.1-19.9-23.3-37h23.3V275.65z
				 M236.7,222.95H209c-1.3-6.8-2.1-14.2-2.1-22.2s0.8-15.4,2.1-22.2h27.7V222.95z M236.7,162.75h-23.4
				c6.2-17.3,15.8-29.5,23.4-37.1V162.75z M252.5,125.75c7.6,7.7,17.1,19.9,23.3,37h-23.3V125.75z M252.5,178.45h27.7
				c1.3,6.8,2.1,14.2,2.1,22.2s-0.8,15.4-2.1,22.2h-27.7V178.45z M252.5,238.75h23.4c-6.2,17.3-15.8,29.5-23.4,37.1V238.75z
				 M275.6,272.75c6.4-8.9,12.6-20.2,16.8-34h20.7C304.8,253.75,291.6,265.85,275.6,272.75z M323,200.75c0,7.7-1.1,15.2-3.2,22.2
				h-23.6c1.2-6.9,1.8-14.3,1.8-22.2s-0.7-15.3-1.8-22.2h23.6C321.9,185.55,323,192.95,323,200.75z M292.5,162.75
				c-4.2-13.8-10.4-25.1-16.8-34c15.9,6.9,29.1,18.9,37.5,34H292.5z"/>
		</g>
	</g>
</g>
<g>
</g>
<g>
</g>
<g>
</g>
<g>
</g>
<g>
</g>
<g>
</g>
<g>
</g>
<g>
</g>
<g>
</g>
<g>
</g>
<g>
</g>
<g>
</g>
<g>
</g>
<g>
</g>
<g>
</g>
</svg>
