
<svg width="128" height="82" viewBox="0 0 128 82" fill="none" xmlns="http://www.w3.org/2000/svg">
<rect x="3" y="3" width="122" height="76" rx="14" stroke="white" stroke-width="6"/>
<path d="M28.9883 60.082H21.1953V55.1211H27.7188V53.0703H21.1953V48.0703H28.7148V46H19.1641V62.1523H28.9883V60.082ZM25.8828 44.2422C27.1979 44.2422 28.3893 44.4375 29.457 44.8281C30.5247 45.2188 31.4297 45.7526 32.1719 46.4297C32.9271 47.1068 33.5065 47.901 33.9102 48.8125C34.3138 49.7109 34.5156 50.668 34.5156 51.6836V63.5586C34.5156 64.5742 34.3138 65.5378 33.9102 66.4492C33.5065 67.3477 32.9271 68.1354 32.1719 68.8125C31.4297 69.4896 30.5247 70.0234 29.457 70.4141C28.3893 70.8047 27.1979 71 25.8828 71H19.8672C18.5521 71 17.3607 70.8047 16.293 70.4141C15.2253 70.0234 14.3138 69.4896 13.5586 68.8125C12.8164 68.1354 12.2435 67.3477 11.8398 66.4492C11.4362 65.5378 11.2344 64.5742 11.2344 63.5586V51.6836C11.2344 50.668 11.4362 49.7109 11.8398 48.8125C12.2435 47.901 12.8164 47.1068 13.5586 46.4297C14.3138 45.7526 15.2253 45.2188 16.293 44.8281C17.3607 44.4375 18.5521 44.2422 19.8672 44.2422H25.8828ZM49.0078 44.2422C50.3229 44.2422 51.5143 44.4375 52.582 44.8281C53.6497 45.2188 54.5547 45.7526 55.2969 46.4297C56.0521 47.1068 56.6315 47.901 57.0352 48.8125C57.4388 49.7109 57.6406 50.668 57.6406 51.6836V63.5586C57.6406 64.5742 57.4388 65.5378 57.0352 66.4492C56.6315 67.3477 56.0521 68.1354 55.2969 68.8125C54.5547 69.4896 53.6497 70.0234 52.582 70.4141C51.5143 70.8047 50.3229 71 49.0078 71H42.9922C41.6771 71 40.4857 70.8047 39.418 70.4141C38.3503 70.0234 37.4388 69.4896 36.6836 68.8125C35.9414 68.1354 35.3685 67.3477 34.9648 66.4492C34.5612 65.5378 34.3594 64.5742 34.3594 63.5586V51.6836C34.3594 50.668 34.5612 49.7109 34.9648 48.8125C35.3685 47.901 35.9414 47.1068 36.6836 46.4297C37.4388 45.7526 38.3503 45.2188 39.418 44.8281C40.4857 44.4375 41.6771 44.2422 42.9922 44.2422H49.0078ZM52.6797 56.0391L52.4062 54.3594L51.1562 53.1289L49.125 52.9141H44.75L43.5586 52.6797C43.4935 52.4583 43.4479 52.263 43.4219 52.0938C43.3958 51.9115 43.3503 51.7227 43.2852 51.5273V49.4766L43.5586 48.3242L44.8477 48.0703H49.8086L51.6445 48.4414L52.1133 46.3125L49.8477 46H44.7109L42.7578 46.2734L41.4883 47.5234L41.2344 49.1641V51.8398L41.4883 53.4805L42.7578 54.7109L44.7109 54.9648H49.125L50.3164 55.1602C50.3555 55.3555 50.401 55.5378 50.4531 55.707C50.5052 55.8763 50.5508 56.0521 50.5898 56.2344V58.793C50.5638 58.9622 50.5182 59.1445 50.4531 59.3398C50.401 59.5352 50.3555 59.7174 50.3164 59.8867L49.0469 60.082H44.2031L42.2891 59.7695L41.8008 61.8789L44.0859 62.1523H49.1641L51.1562 61.918L52.4062 60.6875L52.6797 59.0078V56.0391ZM71.8789 46H67.1719L65.1602 46.2344L63.9297 47.4844L63.6367 49.125V59.0469L63.9297 60.6875L65.1992 61.918L67.1719 62.1523H71.8789L74.1641 61.8789L73.6758 59.7695L71.8398 60.082H67.2891L66 59.8867L65.7266 58.7148V49.3203L65.9219 48.2461L67.2891 48.0312H71.7617L73.7734 48.3633L74.1641 46.2734L71.8789 46ZM72.1328 44.2422C73.4479 44.2422 74.6393 44.4375 75.707 44.8281C76.7747 45.2188 77.6797 45.7526 78.4219 46.4297C79.1771 47.1068 79.7565 47.901 80.1602 48.8125C80.5638 49.7109 80.7656 50.668 80.7656 51.6836V63.5586C80.7656 64.5742 80.5638 65.5378 80.1602 66.4492C79.7565 67.3477 79.1771 68.1354 78.4219 68.8125C77.6797 69.4896 76.7747 70.0234 75.707 70.4141C74.6393 70.8047 73.4479 71 72.1328 71H66.1172C64.8021 71 63.6107 70.8047 62.543 70.4141C61.4753 70.0234 60.5638 69.4896 59.8086 68.8125C59.0664 68.1354 58.4935 67.3477 58.0898 66.4492C57.6862 65.5378 57.4844 64.5742 57.4844 63.5586V51.6836C57.4844 50.668 57.6862 49.7109 58.0898 48.8125C58.4935 47.901 59.0664 47.1068 59.8086 46.4297C60.5638 45.7526 61.4753 45.2188 62.543 44.8281C63.6107 44.4375 64.8021 44.2422 66.1172 44.2422H72.1328Z" fill="white"/>
</svg>